<?xml version="1.0" encoding="UTF-8"?>
<svg version="1.1" xmlns="http://www.w3.org/2000/svg" width="500" height="224">
<path d="M0 0 C165 0 330 0 500 0 C500 73.92 500 147.84 500 224 C335 224 170 224 0 224 C0 150.08 0 76.16 0 0 Z " fill="#FEFEFE" transform="translate(0,0)"/>
<path d="M0 0 C12.47009413 -0.58703724 22.20282616 4.14038198 31.48828125 12.18359375 C35.960032 16.38118061 40.24427075 20.75740791 44.48828125 25.18359375 C47.64182313 23.80024926 49.63019766 22.22366307 51.95703125 19.69921875 C52.60518799 19.01351807 53.25334473 18.32781738 53.92114258 17.62133789 C54.60329834 16.89938232 55.2854541 16.17742676 55.98828125 15.43359375 C65.20794679 5.9124735 74.16090594 -0.00547222 87.80078125 -0.25390625 C99.83606129 -0.33124915 109.82350879 3.44225403 118.58984375 11.98046875 C121.82073138 15.7298939 124.35002407 19.72565151 126.48828125 24.18359375 C127.30039062 25.80201172 127.30039062 25.80201172 128.12890625 27.453125 C130.35217714 33.5610278 129.93396539 40.19669796 129.87939453 46.61157227 C129.86324327 48.87641953 129.87933358 51.1395023 129.8984375 53.40429688 C129.89645618 54.85547265 129.89261481 56.30664735 129.88671875 57.7578125 C129.88333496 59.06322998 129.87995117 60.36864746 129.87646484 61.71362305 C129.32448686 66.64775074 127.60842597 69.13144503 124.04296875 72.48046875 C118.8890828 74.94980312 114.24487161 74.61391561 108.61328125 74.43359375 C107.54335938 74.41554688 106.4734375 74.3975 105.37109375 74.37890625 C102.74255947 74.33196814 100.11589212 74.26632308 97.48828125 74.18359375 C97.81828125 73.52359375 98.14828125 72.86359375 98.48828125 72.18359375 C98.58527971 70.24801697 98.61904326 68.30909838 98.62109375 66.37109375 C98.62302734 64.63472656 98.62302734 64.63472656 98.625 62.86328125 C98.62113281 61.64898437 98.61726562 60.4346875 98.61328125 59.18359375 C98.61714844 57.96929687 98.62101563 56.755 98.625 55.50390625 C98.62371094 54.34632812 98.62242187 53.18875 98.62109375 51.99609375 C98.61940186 50.39701172 98.61940186 50.39701172 98.61767578 48.765625 C98.66232323 46.19677235 98.66232323 46.19677235 97.48828125 44.18359375 C100.50936027 44.12926865 103.52944653 44.08976448 106.55078125 44.05859375 C107.39833984 44.04183594 108.24589844 44.02507813 109.11914062 44.0078125 C114.32246326 43.9676324 118.56297946 44.4861356 123.48828125 46.18359375 C122.67524567 33.31520302 121.44754174 23.83246252 111.92578125 14.37109375 C104.86258755 8.67192025 95.84861409 5.33711367 86.75390625 5.89453125 C71.70467211 7.81460595 60.96315268 17.42762176 51.55078125 28.80859375 C50.82568359 29.75605469 50.82568359 29.75605469 50.0859375 30.72265625 C47.89097839 32.72978268 46.44876077 33.01273457 43.48828125 33.18359375 C41.27514648 31.55639648 41.27514648 31.55639648 39.046875 29.1171875 C38.21478516 28.23869141 37.38269531 27.36019531 36.52539062 26.45507812 C34.81843304 24.59422504 33.11266492 22.73228001 31.40820312 20.86914062 C22.8682687 11.8580374 14.29576851 6.78071153 1.80078125 5.93359375 C-7.96571466 6.13822509 -16.30037858 9.6427817 -23.51171875 16.18359375 C-31.31714801 25.35579649 -32.99089004 34.40208906 -33.51171875 46.18359375 C-32.733125 46.46332031 -31.95453125 46.74304688 -31.15234375 47.03125 C-27.32920831 48.69963011 -26.34858575 50.44425735 -24.51171875 54.18359375 C-24.33236973 56.01241032 -24.21166001 57.84753277 -24.13671875 59.68359375 C-23.91891643 63.77716047 -23.48245293 65.92081281 -20.57421875 68.87109375 C-17.88529169 71.38446131 -17.88529169 71.38446131 -15.51171875 71.18359375 C-15.4537431 67.24615542 -15.41813086 63.30882656 -15.38671875 59.37109375 C-15.36996094 58.25154297 -15.35320312 57.13199219 -15.3359375 55.97851562 C-15.32949219 54.90537109 -15.32304687 53.83222656 -15.31640625 52.7265625 C-15.30593262 51.7368042 -15.29545898 50.7470459 -15.28466797 49.72729492 C-15.32904471 46.93919855 -15.32904471 46.93919855 -17.51171875 44.18359375 C-12.56171875 44.18359375 -7.61171875 44.18359375 -2.51171875 44.18359375 C-2.51171875 44.84359375 -2.51171875 45.50359375 -2.51171875 46.18359375 C-3.50171875 46.67859375 -3.50171875 46.67859375 -4.51171875 47.18359375 C-4.56956583 51.30853526 -4.60526282 55.43337319 -4.63671875 59.55859375 C-4.65347656 60.73421875 -4.67023438 61.90984375 -4.6875 63.12109375 C-4.69394531 64.24257812 -4.70039063 65.3640625 -4.70703125 66.51953125 C-4.71750488 67.5564209 -4.72797852 68.59331055 -4.73876953 69.66162109 C-4.76786901 72.35467998 -4.76786901 72.35467998 -2.51171875 74.18359375 C-6.14171875 74.51359375 -9.77171875 74.84359375 -13.51171875 75.18359375 C1.66828125 90.36359375 16.84828125 105.54359375 32.48828125 121.18359375 C32.48828125 119.86359375 32.48828125 118.54359375 32.48828125 117.18359375 C33.80828125 117.18359375 35.12828125 117.18359375 36.48828125 117.18359375 C36.98328125 121.63859375 36.98328125 121.63859375 37.48828125 126.18359375 C39.46828125 126.67859375 39.46828125 126.67859375 41.48828125 127.18359375 C41.48828125 127.84359375 41.48828125 128.50359375 41.48828125 129.18359375 C43.46828125 129.18359375 45.44828125 129.18359375 47.48828125 129.18359375 C47.48828125 128.19359375 47.48828125 127.20359375 47.48828125 126.18359375 C45.17828125 125.19359375 42.86828125 124.20359375 40.48828125 123.18359375 C41.36328125 118.30859375 41.36328125 118.30859375 42.48828125 117.18359375 C45.15886976 117.04244214 47.81260363 117.14112268 50.48828125 117.18359375 C49.99328125 118.66859375 49.99328125 118.66859375 49.48828125 120.18359375 C47.50828125 119.85359375 45.52828125 119.52359375 43.48828125 119.18359375 C44.42169448 121.60789083 44.42169448 121.60789083 47.98828125 122.55859375 C51.48828125 124.18359375 51.48828125 124.18359375 52.61328125 126.18359375 C52.48828125 128.18359375 52.48828125 128.18359375 51.48828125 129.93359375 C48.52155822 131.78779565 45.90331084 131.37689731 42.48828125 131.18359375 C42.48828125 131.84359375 42.48828125 132.50359375 42.48828125 133.18359375 C43.06835938 133.44011719 43.6484375 133.69664062 44.24609375 133.9609375 C52.54071736 138.48396396 59.59037665 148.2931896 62.48828125 157.18359375 C63.55171384 166.35150209 62.6438321 173.48577402 57.48828125 181.18359375 C57.09253906 181.77914062 56.69679688 182.3746875 56.2890625 182.98828125 C52.62025076 187.88815606 47.51079596 191.06436535 41.48828125 192.18359375 C30.66985019 192.87639968 23.20339622 192.62739661 14.92578125 185.43359375 C11.74244284 182.4624779 8.71830234 179.38614551 5.7265625 176.22265625 C4.73861694 175.19350098 4.73861694 175.19350098 3.73071289 174.14355469 C2.41755541 172.76941366 1.12058277 171.37959451 -0.15844727 169.97363281 C-1.87172316 168.18091845 -3.46775991 166.58836148 -5.51171875 165.18359375 C-8.6228462 165.07276881 -8.6228462 165.07276881 -11.51171875 166.18359375 C-18.94741656 166.97633346 -24.54524395 166.77699782 -30.59765625 162.078125 C-35.24579479 157.47741644 -37.75093169 152.69796479 -38.07421875 146.12109375 C-37.82152985 141.06731581 -36.17771631 135.84959131 -32.51171875 132.18359375 C-33.13820312 132.07402344 -33.7646875 131.96445313 -34.41015625 131.8515625 C-35.22742188 131.69300781 -36.0446875 131.53445312 -36.88671875 131.37109375 C-37.69882813 131.22027344 -38.5109375 131.06945312 -39.34765625 130.9140625 C-41.51171875 130.18359375 -41.51171875 130.18359375 -43.51171875 127.18359375 C-43.97327244 123.56808983 -43.96578758 121.84723281 -41.88671875 118.80859375 C-38.83385954 116.71979534 -37.14203651 116.64290813 -33.51171875 117.18359375 C-31.63671875 118.55859375 -31.63671875 118.55859375 -30.51171875 120.18359375 C-30.51171875 120.84359375 -30.51171875 121.50359375 -30.51171875 122.18359375 C-33.48171875 123.17359375 -36.45171875 124.16359375 -39.51171875 125.18359375 C-38.85171875 126.50359375 -38.19171875 127.82359375 -37.51171875 129.18359375 C-33.08109233 128.66840463 -30.21226199 127.65062257 -26.51171875 125.18359375 C-21.84505208 122.18359375 -21.84505208 122.18359375 -18.51171875 122.18359375 C-18.51171875 121.19359375 -18.51171875 120.20359375 -18.51171875 119.18359375 C-22.47171875 120.17359375 -22.47171875 120.17359375 -26.51171875 121.18359375 C-26.51171875 120.19359375 -26.51171875 119.20359375 -26.51171875 118.18359375 C-22.99112307 117.01006186 -20.20522575 116.98212973 -16.51171875 117.18359375 C-14.51171875 119.18359375 -14.51171875 119.18359375 -14.38671875 122.80859375 C-14.42796875 123.92234375 -14.46921875 125.03609375 -14.51171875 126.18359375 C-13.19171875 126.51359375 -11.87171875 126.84359375 -10.51171875 127.18359375 C-11.00671875 119.75859375 -11.00671875 119.75859375 -11.51171875 112.18359375 C-9.86171875 112.18359375 -8.21171875 112.18359375 -6.51171875 112.18359375 C-6.52074219 113.31796875 -6.52976563 114.45234375 -6.5390625 115.62109375 C-6.68992568 125.61227499 -6.68992568 125.61227499 -2.01171875 134.05859375 C-1.068125 134.89003906 -1.068125 134.89003906 -0.10546875 135.73828125 C2.22878444 137.85512851 2.46114655 139.82197168 2.69140625 142.890625 C2.78247001 148.92359943 2.55568693 152.84897518 -0.51171875 158.18359375 C-0.1083829 163.82657491 5.38948029 167.56435823 9.15136719 171.29272461 C10.59985635 172.73274732 12.02877908 174.19032828 13.45703125 175.65039062 C20.00438846 182.19316285 24.79615216 186.60816807 34.42578125 186.62109375 C40.73458182 186.43971573 45.36244074 185.10157785 50.015625 180.7578125 C54.51154583 175.71456218 55.8002525 171.07923365 55.92578125 164.43359375 C55.96574219 163.28375 56.00570312 162.13390625 56.046875 160.94921875 C54.70992925 151.93652153 48.86677958 146.00611246 42.48828125 139.93359375 C41.78960937 139.25296875 41.0909375 138.57234375 40.37109375 137.87109375 C39.06717877 136.60162181 37.75914518 135.33635333 36.4453125 134.07714844 C34.09849778 131.80645296 31.79569206 129.49435227 29.48828125 127.18359375 C28.58828903 126.28360153 27.68829681 125.38360931 26.7610321 124.4563446 C9.00344849 106.69876099 -8.75413513 88.94117737 -26.51171875 71.18359375 C-30.05690759 72.5811928 -30.05690759 72.5811928 -33.51171875 74.18359375 C-35.25216045 74.26809003 -36.99581597 74.29082399 -38.73828125 74.28125 C-40.28515625 74.27641602 -40.28515625 74.27641602 -41.86328125 74.27148438 C-43.48363281 74.25891602 -43.48363281 74.25891602 -45.13671875 74.24609375 C-46.76867187 74.23932617 -46.76867187 74.23932617 -48.43359375 74.23242188 C-51.12635664 74.22061151 -53.81901063 74.20414153 -56.51171875 74.18359375 C-56.01671875 73.19359375 -56.01671875 73.19359375 -55.51171875 72.18359375 C-55.41472029 70.24801697 -55.38095674 68.30909838 -55.37890625 66.37109375 C-55.37761719 65.21351562 -55.37632812 64.0559375 -55.375 62.86328125 C-55.37886719 61.64898437 -55.38273438 60.4346875 -55.38671875 59.18359375 C-55.38285156 57.96929687 -55.37898437 56.755 -55.375 55.50390625 C-55.37628906 54.34632812 -55.37757813 53.18875 -55.37890625 51.99609375 C-55.38003418 50.93003906 -55.38116211 49.86398438 -55.38232422 48.765625 C-55.33767677 46.19677235 -55.33767677 46.19677235 -56.51171875 44.18359375 C-50.90171875 44.18359375 -45.29171875 44.18359375 -39.51171875 44.18359375 C-39.57359375 42.90484375 -39.63546875 41.62609375 -39.69921875 40.30859375 C-39.64609548 28.9933369 -34.41376313 19.16483147 -26.88671875 10.93359375 C-19.00618578 3.49086817 -10.47992689 0.76602887 0 0 Z " fill="#BACFE8" transform="translate(206.51171875,19.81640625)"/>
<path d="M0 0 C0 3.63 0 7.26 0 11 C1.32 11.33 2.64 11.66 4 12 C4 8.04 4 4.08 4 0 C7.60772477 1.80386238 9.47634052 3.2057949 12.25 6 C12.95640625 6.70125 13.6628125 7.4025 14.390625 8.125 C16 10 16 10 16 12 C16.58789307 12.26482178 17.17578613 12.52964355 17.78149414 12.80249023 C21.59740043 14.86224817 24.38854964 18.01951044 27.4375 21.0625 C28.09298828 21.69349609 28.74847656 22.32449219 29.42382812 22.97460938 C34.87316908 28.3911559 39.30270688 33.94184068 40.62890625 41.66015625 C40.47146329 49.72679242 40.02910077 55.74175606 34.3515625 61.7421875 C29.40436848 66.25731218 24.97149603 68.28608786 18.1875 68.375 C17.21167969 68.40335937 16.23585937 68.43171875 15.23046875 68.4609375 C6.00140961 67.14409472 0.23480172 60.92199224 -6.05786133 54.57348633 C-7.57359985 53.05135332 -9.11433705 51.55798902 -10.65820312 50.06445312 C-11.62922066 49.09797554 -12.59868134 48.1299307 -13.56640625 47.16015625 C-14.44240479 46.29011963 -15.31840332 45.42008301 -16.22094727 44.52368164 C-18 42 -18 42 -17.8425293 39.29858398 C-17 37 -17 37 -15.953125 35.0625 C-14.67592682 32.29872689 -14.73483904 30.03219248 -14.75 27 C-14.74226562 25.453125 -14.74226562 25.453125 -14.734375 23.875 C-15.00012869 20.99860714 -15.68295492 19.50865729 -17 17 C-17 15.68 -17 14.36 -17 13 C-13.17679443 11.57741188 -10.08718695 10.75957724 -6 11 C-6.03480469 10.37351563 -6.06960937 9.74703125 -6.10546875 9.1015625 C-6.13253906 8.28429687 -6.15960938 7.46703125 -6.1875 6.625 C-6.22230469 5.81289062 -6.25710937 5.00078125 -6.29296875 4.1640625 C-6.19628906 3.44992188 -6.09960938 2.73578125 -6 2 C-3 0 -3 0 0 0 Z " fill="#FEFEFE" transform="translate(223,139)"/>
<path d="M0 0 C4.10403363 -0.08694042 8.20783129 -0.14037149 12.3125 -0.1875 C13.47974609 -0.21263672 14.64699219 -0.23777344 15.84960938 -0.26367188 C16.96787109 -0.27333984 18.08613281 -0.28300781 19.23828125 -0.29296875 C20.26993408 -0.3086792 21.30158691 -0.32438965 22.36450195 -0.34057617 C25 0 25 0 26.86010742 1.3659668 C28 3 28 3 28 5.4375 C26.71179042 8.73853706 24.87256119 10.01130379 22 12 C23.3303125 12.495 23.3303125 12.495 24.6875 13 C30.62004877 16.58191624 33.19448599 22.43449452 35 29 C35.66 28.67 36.32 28.34 37 28 C37.02891949 23.70834738 37.04677118 19.41671964 37.0625 15.125 C37.07506836 13.29001953 37.07506836 13.29001953 37.08789062 11.41796875 C37.09111328 10.25136719 37.09433594 9.08476563 37.09765625 7.8828125 C37.10289307 6.80402832 37.10812988 5.72524414 37.11352539 4.61376953 C37.17883106 2.01767814 37.17883106 2.01767814 36 0 C40.10410755 -0.05796132 44.20811016 -0.09358313 48.3125 -0.125 C49.47974609 -0.14175781 50.64699219 -0.15851562 51.84960938 -0.17578125 C52.96787109 -0.18222656 54.08613281 -0.18867187 55.23828125 -0.1953125 C56.26993408 -0.20578613 57.30158691 -0.21625977 58.36450195 -0.22705078 C61 0 61 0 64 2 C64.5 4.8125 64.5 4.8125 64 8 C61.5 10.875 61.5 10.875 59 13 C59.40992188 13.61488281 59.81984375 14.22976562 60.2421875 14.86328125 C62.49479167 18.2421875 64.74739583 21.62109375 67 25 C73.24488205 14.18919031 73.24488205 14.18919031 74 2 C73.505 1.01 73.505 1.01 73 0 C77.95 0 82.9 0 88 0 C88 0.66 88 1.32 88 2 C87.34 2.33 86.68 2.66 86 3 C86 11.58 86 20.16 86 29 C86.66 29.33 87.32 29.66 88 30 C83.05 30 78.1 30 73 30 C73.99 29.505 73.99 29.505 75 29 C75.65772428 25.97065509 75.65772428 25.97065509 76 23 C75.34 23 74.68 23 74 23 C73.773125 23.77859375 73.54625 24.5571875 73.3125 25.359375 C71.57255323 30.18565591 69.3079294 34.67370569 67 39.25 C66.32324219 40.61511719 66.32324219 40.61511719 65.6328125 42.0078125 C64.97925781 43.31105469 64.97925781 43.31105469 64.3125 44.640625 C63.91675781 45.42985352 63.52101563 46.21908203 63.11328125 47.03222656 C62 49 62 49 60 51 C59.01 51 58.02 51 57 51 C55.35 47.7 53.7 44.4 52 41 C51.01 41 50.02 41 49 41 C48.52820313 41.95712891 48.52820313 41.95712891 48.046875 42.93359375 C47.61890625 43.75988281 47.1909375 44.58617187 46.75 45.4375 C46.33234375 46.26121094 45.9146875 47.08492187 45.484375 47.93359375 C44 50 44 50 40 51 C36.37 43.74 32.74 36.48 29 29 C27.02 29.33 25.04 29.66 23 30 C21.12886684 30.07606897 19.25546172 30.10817675 17.3828125 30.09765625 C16.36445313 30.09443359 15.34609375 30.09121094 14.296875 30.08789062 C13.25015625 30.07951172 12.2034375 30.07113281 11.125 30.0625 C9.52011719 30.05573242 9.52011719 30.05573242 7.8828125 30.04882812 C5.25515014 30.03709749 2.62760462 30.02068228 0 30 C0.33 29.34 0.66 28.68 1 28 C1.09699846 26.06442322 1.13076201 24.12550463 1.1328125 22.1875 C1.13410156 21.02992187 1.13539063 19.87234375 1.13671875 18.6796875 C1.13285156 17.46539062 1.12898437 16.25109375 1.125 15 C1.12886719 13.78570312 1.13273438 12.57140625 1.13671875 11.3203125 C1.13542969 10.16273437 1.13414062 9.00515625 1.1328125 7.8125 C1.13168457 6.74644531 1.13055664 5.68039063 1.12939453 4.58203125 C1.17404198 2.0131786 1.17404198 2.0131786 0 0 Z " fill="#B8CDE8" transform="translate(210,64)"/>
<path d="M0 0 C1.65 0 3.3 0 5 0 C4.99097656 1.134375 4.98195312 2.26875 4.97265625 3.4375 C4.82179307 13.42868124 4.82179307 13.42868124 9.5 21.875 C10.1290625 22.42929688 10.758125 22.98359375 11.40625 23.5546875 C13.74050319 25.67153476 13.9728653 27.63837793 14.203125 30.70703125 C14.29418876 36.74000568 14.06740568 40.66538143 11 46 C11.40333585 51.64298116 16.90119904 55.38076448 20.66308594 59.10913086 C22.1115751 60.54915357 23.54049783 62.00673453 24.96875 63.46679688 C31.51610721 70.0095691 36.30787091 74.42457432 45.9375 74.4375 C52.24630057 74.25612198 56.87415949 72.9179841 61.52734375 68.57421875 C66.02326458 63.53096843 67.31197125 58.8956399 67.4375 52.25 C67.47746094 51.10015625 67.51742187 49.9503125 67.55859375 48.765625 C66.20765552 39.65860084 60.25133681 33.69833273 53.8125 27.5625 C53.08869141 26.85673828 52.36488281 26.15097656 51.61914062 25.42382812 C50.2894988 24.12881883 48.95576103 22.8379906 47.61645508 21.55297852 C44.00537958 18.08370632 44.00537958 18.08370632 43.8046875 14.9609375 C43.82789063 13.77757812 43.85109375 12.59421875 43.875 11.375 C43.89304687 10.18648437 43.91109375 8.99796875 43.9296875 7.7734375 C43.95289063 6.85820312 43.97609375 5.94296875 44 5 C45.32 5 46.64 5 48 5 C48.495 9.455 48.495 9.455 49 14 C50.32 14.33 51.64 14.66 53 15 C53 15.66 53 16.32 53 17 C54.98 17 56.96 17 59 17 C59 16.01 59 15.02 59 14 C56.69 13.01 54.38 12.02 52 11 C52.875 6.125 52.875 6.125 54 5 C56.67058851 4.85884839 59.32432238 4.95752893 62 5 C61.67 5.99 61.34 6.98 61 8 C59.02 7.67 57.04 7.34 55 7 C55.93341323 9.42429708 55.93341323 9.42429708 59.5 10.375 C63 12 63 12 64.125 14 C64 16 64 16 63 17.75 C60.03327697 19.6042019 57.41502959 19.19330356 54 19 C54 19.66 54 20.32 54 21 C54.87011719 21.38478516 54.87011719 21.38478516 55.7578125 21.77734375 C64.05243611 26.30037021 71.1020954 36.10959585 74 45 C75.06343259 54.16790834 74.15555085 61.30218027 69 69 C68.60425781 69.59554687 68.20851563 70.19109375 67.80078125 70.8046875 C64.13196951 75.70456231 59.02251471 78.8807716 53 80 C42.18156894 80.69280593 34.71511497 80.44380286 26.4375 73.25 C23.25416159 70.27888415 20.23002109 67.20255176 17.23828125 64.0390625 C16.57965088 63.35295898 15.92102051 62.66685547 15.24243164 61.95996094 C13.92927416 60.58581991 12.63230152 59.19600076 11.35327148 57.79003906 C9.63999559 55.9973247 8.04395884 54.40476773 6 53 C2.88887255 52.88917506 2.88887255 52.88917506 0 54 C-7.43569781 54.79273971 -13.0335252 54.59340407 -19.0859375 49.89453125 C-23.73407604 45.29382269 -26.23921294 40.51437104 -26.5625 33.9375 C-26.3098111 28.88372206 -24.66599756 23.66599756 -21 20 C-21.93972656 19.83564453 -21.93972656 19.83564453 -22.8984375 19.66796875 C-24.12433594 19.43013672 -24.12433594 19.43013672 -25.375 19.1875 C-26.18710938 19.03667969 -26.99921875 18.88585937 -27.8359375 18.73046875 C-30 18 -30 18 -32 15 C-32.46155369 11.38449608 -32.45406883 9.66363906 -30.375 6.625 C-27.32214079 4.53620159 -25.63031776 4.45931438 -22 5 C-20.125 6.375 -20.125 6.375 -19 8 C-19 8.66 -19 9.32 -19 10 C-23.455 11.485 -23.455 11.485 -28 13 C-27.34 14.32 -26.68 15.64 -26 17 C-21.56937358 16.48481088 -18.70054324 15.46702882 -15 13 C-10.33333333 10 -10.33333333 10 -7 10 C-7 9.01 -7 8.02 -7 7 C-9.64 7.66 -12.28 8.32 -15 9 C-15 8.01 -15 7.02 -15 6 C-11.47940432 4.82646811 -8.693507 4.79853598 -5 5 C-3 7 -3 7 -2.875 10.625 C-2.91625 11.73875 -2.9575 12.8525 -3 14 C-1.68 14.33 -0.36 14.66 1 15 C0.505 7.575 0.505 7.575 0 0 Z " fill="#BBCFE9" transform="translate(195,132)"/>
<path d="M0 0 C3.16634636 -0.11760715 6.33212074 -0.18771024 9.5 -0.25 C10.386875 -0.28351562 11.27375 -0.31703125 12.1875 -0.3515625 C18.32768788 -0.44185938 22.89036161 0.47619117 28 4 C31.55719632 7.73961665 32.15205114 10.5208088 32.375 15.5 C32.59280232 19.59356672 33.02926582 21.73721906 35.9375 24.6875 C38.62642706 27.20086756 38.62642706 27.20086756 41 27 C41.05797565 23.06256167 41.09358789 19.12523281 41.125 15.1875 C41.14175781 14.06794922 41.15851563 12.94839844 41.17578125 11.79492188 C41.18222656 10.72177734 41.18867188 9.64863281 41.1953125 8.54296875 C41.20578613 7.55321045 41.21625977 6.56345215 41.22705078 5.54370117 C41.18267404 2.7556048 41.18267404 2.7556048 39 0 C43.95 0 48.9 0 54 0 C54 0.66 54 1.32 54 2 C53.34 2.33 52.68 2.66 52 3 C51.94215292 7.12494151 51.90645593 11.24977944 51.875 15.375 C51.85824219 16.550625 51.84148437 17.72625 51.82421875 18.9375 C51.81777344 20.05898437 51.81132812 21.18046875 51.8046875 22.3359375 C51.79421387 23.37282715 51.78374023 24.4097168 51.77294922 25.47802734 C51.74384974 28.17108623 51.74384974 28.17108623 54 30 C50.37 30.33 46.74 30.66 43 31 C43.58881958 31.57105469 44.17763916 32.14210937 44.78430176 32.73046875 C50.33765777 38.12333553 55.87133471 43.53530869 61.38411713 48.96961975 C64.21882554 51.76262796 67.06046384 54.54773188 69.91943359 57.31591797 C72.67979051 59.9891653 75.41996883 62.68165582 78.14744568 65.38842773 C79.18987334 66.4161063 80.23930322 67.43673307 81.29579163 68.44995117 C89.59658758 76.42411659 89.59658758 76.42411659 90.63110352 80.46533203 C90.64257812 82.69140625 90.64257812 82.69140625 90 86 C83.14092885 80.38062338 76.96990509 74.09685489 70.72265625 67.8203125 C69.54460742 66.64039553 68.36633534 65.46070142 67.18785095 64.28121948 C64.10652858 61.19610309 61.02822284 58.10799411 57.95056152 55.01922607 C54.80155966 51.85994267 51.64967829 48.70353484 48.49804688 45.546875 C42.3292289 39.36737473 36.16359871 33.1847061 30 27 C26.45481116 28.39759905 26.45481116 28.39759905 23 30 C21.2595583 30.08449628 19.51590278 30.10723024 17.7734375 30.09765625 C16.7421875 30.09443359 15.7109375 30.09121094 14.6484375 30.08789062 C13.02808594 30.07532227 13.02808594 30.07532227 11.375 30.0625 C9.74304688 30.05573242 9.74304688 30.05573242 8.078125 30.04882812 C5.38536211 30.03701776 2.69270812 30.02054778 0 30 C0.33 29.34 0.66 28.68 1 28 C1.09699846 26.06442322 1.13076201 24.12550463 1.1328125 22.1875 C1.13410156 21.02992187 1.13539063 19.87234375 1.13671875 18.6796875 C1.13285156 17.46539062 1.12898437 16.25109375 1.125 15 C1.12886719 13.78570312 1.13273438 12.57140625 1.13671875 11.3203125 C1.13542969 10.16273437 1.13414062 9.00515625 1.1328125 7.8125 C1.13168457 6.74644531 1.13055664 5.68039063 1.12939453 4.58203125 C1.17404198 2.0131786 1.17404198 2.0131786 0 0 Z " fill="#064EAF" transform="translate(150,64)"/>
<path d="M0 0 C3.02138567 -0.08149592 6.04053905 -0.14073421 9.0625 -0.1875 C9.91005859 -0.21263672 10.75761719 -0.23777344 11.63085938 -0.26367188 C18.71204413 -0.34569332 23.43881739 0.71720681 28.875 5.5625 C32.52872756 9.75354044 32.28160502 12.89155513 32.2109375 18.3046875 C31.83897512 23.05754013 30.08737016 25.03245517 26.625 28.11328125 C21.93773891 31.17343578 16.50851138 30.42237844 11.125 30.25 C9.52011719 30.22292969 9.52011719 30.22292969 7.8828125 30.1953125 C5.25427822 30.14837439 2.62761087 30.08272933 0 30 C0.33 29.34 0.66 28.68 1 28 C1.09699846 26.06442322 1.13076201 24.12550463 1.1328125 22.1875 C1.13410156 21.02992187 1.13539063 19.87234375 1.13671875 18.6796875 C1.13285156 17.46539062 1.12898438 16.25109375 1.125 15 C1.12886719 13.78570312 1.13273437 12.57140625 1.13671875 11.3203125 C1.13542969 10.16273437 1.13414062 9.00515625 1.1328125 7.8125 C1.13168457 6.74644531 1.13055664 5.68039063 1.12939453 4.58203125 C1.17404198 2.0131786 1.17404198 2.0131786 0 0 Z " fill="#064EAE" transform="translate(304,64)"/>
<path d="M0 0 C4.95 0 9.9 0 15 0 C15 0.66 15 1.32 15 2 C14.01 2.495 14.01 2.495 13 3 C12.94215292 7.12494151 12.90645593 11.24977944 12.875 15.375 C12.85824219 16.550625 12.84148437 17.72625 12.82421875 18.9375 C12.81777344 20.05898437 12.81132812 21.18046875 12.8046875 22.3359375 C12.79421387 23.37282715 12.78374023 24.4097168 12.77294922 25.47802734 C12.74384974 28.17108623 12.74384974 28.17108623 15 30 C11.37 30.33 7.74 30.66 4 31 C4.58881958 31.57105469 5.17763916 32.14210937 5.78430176 32.73046875 C11.33765777 38.12333553 16.87133471 43.53530869 22.38411713 48.96961975 C25.21882554 51.76262796 28.06046384 54.54773188 30.91943359 57.31591797 C33.67979051 59.9891653 36.41996883 62.68165582 39.14744568 65.38842773 C40.18987334 66.4161063 41.23930322 67.43673307 42.29579163 68.44995117 C50.59658758 76.42411659 50.59658758 76.42411659 51.63110352 80.46533203 C51.64257812 82.69140625 51.64257812 82.69140625 51 86 C44.05896567 80.31978209 37.82326094 73.94998244 31.50390625 67.6015625 C30.30343713 66.39922532 29.10274482 65.19711095 27.90184021 63.99520874 C24.76133452 60.85090837 21.62384519 57.70361521 18.48699951 54.55566406 C15.27767382 51.33605827 12.06546995 48.11932679 8.85351562 44.90234375 C2.56620898 38.60435365 -3.71791106 32.30319435 -10 26 C-9.34 24.35 -8.68 22.7 -8 21 C-4.6140504 22.45112126 -2.58324179 24.41675821 0 27 C0.66 27 1.32 27 2 27 C2.05797565 23.06256167 2.09358789 19.12523281 2.125 15.1875 C2.14175781 14.06794922 2.15851563 12.94839844 2.17578125 11.79492188 C2.18544922 10.18520508 2.18544922 10.18520508 2.1953125 8.54296875 C2.20578613 7.55321045 2.21625977 6.56345215 2.22705078 5.54370117 C2.18267404 2.7556048 2.18267404 2.7556048 0 0 Z " fill="#BBCFE9" transform="translate(189,64)"/>
<path d="M0 0 C4.10403363 -0.08694042 8.20783129 -0.14037149 12.3125 -0.1875 C13.47974609 -0.21263672 14.64699219 -0.23777344 15.84960938 -0.26367188 C16.96787109 -0.27333984 18.08613281 -0.28300781 19.23828125 -0.29296875 C20.26993408 -0.3086792 21.30158691 -0.32438965 22.36450195 -0.34057617 C25 0 25 0 26.86010742 1.3659668 C28 3 28 3 28 5.4375 C26.71179042 8.73853706 24.87256119 10.01130379 22 12 C22.94875 12.45375 23.8975 12.9075 24.875 13.375 C28 15 28 15 30 17 C30.68503937 24.07874016 30.68503937 24.07874016 28.1875 27.4375 C24.6686835 29.95094036 21.87723808 30.12086872 17.67578125 30.09765625 C16.64775391 30.09443359 15.61972656 30.09121094 14.56054688 30.08789062 C13.48869141 30.07951172 12.41683594 30.07113281 11.3125 30.0625 C10.22904297 30.05798828 9.14558594 30.05347656 8.02929688 30.04882812 C5.35280915 30.03703743 2.67643223 30.02058063 0 30 C0.33 29.34 0.66 28.68 1 28 C1.09699846 26.06442322 1.13076201 24.12550463 1.1328125 22.1875 C1.13410156 21.02992187 1.13539063 19.87234375 1.13671875 18.6796875 C1.13285156 17.46539062 1.12898437 16.25109375 1.125 15 C1.12886719 13.78570312 1.13273438 12.57140625 1.13671875 11.3203125 C1.13542969 10.16273437 1.13414062 9.00515625 1.1328125 7.8125 C1.13168457 6.74644531 1.13055664 5.68039063 1.12939453 4.58203125 C1.17404198 2.0131786 1.17404198 2.0131786 0 0 Z " fill="#064EAF" transform="translate(210,64)"/>
<path d="M0 0 C4.10410755 -0.05796132 8.20811016 -0.09358313 12.3125 -0.125 C13.47974609 -0.14175781 14.64699219 -0.15851562 15.84960938 -0.17578125 C16.96787109 -0.18222656 18.08613281 -0.18867187 19.23828125 -0.1953125 C20.26993408 -0.20578613 21.30158691 -0.21625977 22.36450195 -0.22705078 C25 0 25 0 28 2 C28.5 4.8125 28.5 4.8125 28 8 C25.5 10.875 25.5 10.875 23 13 C23.39832031 13.58007812 23.79664063 14.16015625 24.20703125 14.7578125 C27.1237371 19.05835689 29.80898432 23.2720188 32 28 C32.495 28.99 32.495 28.99 33 30 C28.05 30 23.1 30 18 30 C18.33 28.68 18.66 27.36 19 26 C18.0424497 23.86620831 18.0424497 23.86620831 16.5625 21.875 C14 18.17438692 14 18.17438692 14 16 C13.34 16 12.68 16 12 16 C12.14076315 17.9587043 12.2877676 19.91696093 12.4375 21.875 C12.55931641 23.51082031 12.55931641 23.51082031 12.68359375 25.1796875 C12.83001703 27.94728971 12.83001703 27.94728971 14 30 C9.38 30 4.76 30 0 30 C0.33 29.34 0.66 28.68 1 28 C1.09699846 26.06442322 1.13076201 24.12550463 1.1328125 22.1875 C1.13410156 21.02992187 1.13539063 19.87234375 1.13671875 18.6796875 C1.13285156 17.46539062 1.12898437 16.25109375 1.125 15 C1.12886719 13.78570312 1.13273438 12.57140625 1.13671875 11.3203125 C1.13542969 10.16273437 1.13414062 9.00515625 1.1328125 7.8125 C1.13168457 6.74644531 1.13055664 5.68039063 1.12939453 4.58203125 C1.17404198 2.0131786 1.17404198 2.0131786 0 0 Z " fill="#0A51B0" transform="translate(246,64)"/>
<path d="M0 0 C1.01964844 -0.00773438 2.03929687 -0.01546875 3.08984375 -0.0234375 C6.48126249 0.43112848 8.32465396 1.34993802 11.0625 3.375 C14.19360316 7.69084489 15.76421227 11.0174668 15.44140625 16.390625 C14.6255949 20.66312154 12.82440517 23.89656967 9.484375 26.69921875 C5.37192628 29.33896624 1.98311413 30.07794488 -2.9375 29.375 C-7.18312328 27.65569801 -10.60304256 25.39545449 -12.9375 21.375 C-14.29343231 17.30720306 -14.46825585 13.62831741 -13.9375 9.375 C-10.6031487 2.94446535 -7.30997148 -0.05530874 0 0 Z " fill="#FDFEFE" transform="translate(188.9375,151.625)"/>
<path d="M0 0 C4.95 0 9.9 0 15 0 C15.33 1.98 15.66 3.96 16 6 C16.99 7.485 16.99 7.485 18 9 C18.99 6.03 19.98 3.06 21 0 C25.62 0 30.24 0 35 0 C34.67 0.66 34.34 1.32 34 2 C33.90300154 3.93557678 33.86923799 5.87449537 33.8671875 7.8125 C33.86589844 8.97007813 33.86460938 10.12765625 33.86328125 11.3203125 C33.86908203 13.14175781 33.86908203 13.14175781 33.875 15 C33.87113281 16.21429688 33.86726563 17.42859375 33.86328125 18.6796875 C33.86457031 19.83726563 33.86585937 20.99484375 33.8671875 22.1875 C33.86887939 23.78658203 33.86887939 23.78658203 33.87060547 25.41796875 C33.82595802 27.9868214 33.82595802 27.9868214 35 30 C30.38 30 25.76 30 21 30 C21.33 29.34 21.66 28.68 22 28 C22.08308638 26.62451844 22.10736016 25.24514204 22.09765625 23.8671875 C22.09282227 22.65869141 22.09282227 22.65869141 22.08789062 21.42578125 C22.07951172 20.58402344 22.07113281 19.74226563 22.0625 18.875 C22.05798828 18.02550781 22.05347656 17.17601563 22.04882812 16.30078125 C22.03702874 14.20049091 22.01909306 12.1002367 22 10 C19.69 14.62 17.38 19.24 15 24 C11.40558322 19.2074443 9.41342101 14.47911796 7 9 C7 15.6 7 22.2 7 29 C7.66 29.33 8.32 29.66 9 30 C6.03 30 3.06 30 0 30 C0.33 29.34 0.66 28.68 1 28 C1.09699846 26.06442322 1.13076201 24.12550463 1.1328125 22.1875 C1.13410156 21.02992187 1.13539062 19.87234375 1.13671875 18.6796875 C1.13285156 17.46539062 1.12898438 16.25109375 1.125 15 C1.12886719 13.78570312 1.13273437 12.57140625 1.13671875 11.3203125 C1.13542969 10.16273437 1.13414063 9.00515625 1.1328125 7.8125 C1.13168457 6.74644531 1.13055664 5.68039063 1.12939453 4.58203125 C1.17404198 2.0131786 1.17404198 2.0131786 0 0 Z " fill="#0C53B1" transform="translate(74,64)"/>
<path d="M0 0 C1.26650391 0.00966797 1.26650391 0.00966797 2.55859375 0.01953125 C3.43128906 0.03628906 4.30398438 0.05304687 5.203125 0.0703125 C6.53537109 0.08384766 6.53537109 0.08384766 7.89453125 0.09765625 C10.08084511 0.121165 12.26701984 0.15703439 14.453125 0.1953125 C14.783125 3.4953125 15.113125 6.7953125 15.453125 10.1953125 C14.4425 9.2053125 13.431875 8.2153125 12.390625 7.1953125 C9.50844739 4.71067663 8.65236681 4.21855738 4.703125 3.7578125 C1.44929538 4.09279173 1.44929538 4.09279173 -1.546875 5.1953125 C-3.46237367 10.94180852 -3.17604562 17.0487304 -1.484375 22.8203125 C0.35536682 25.56681322 0.35536682 25.56681322 4.140625 26.0703125 C5.23375 26.1115625 6.326875 26.1528125 7.453125 26.1953125 C7.48007351 24.23705377 7.49949718 22.27869024 7.515625 20.3203125 C7.53302734 18.68449219 7.53302734 18.68449219 7.55078125 17.015625 C7.65056803 14.24353704 7.65056803 14.24353704 6.453125 12.1953125 C11.073125 12.1953125 15.693125 12.1953125 20.453125 12.1953125 C20.123125 12.8553125 19.793125 13.5153125 19.453125 14.1953125 C19.35597158 16.52699468 19.32334283 18.86161207 19.328125 21.1953125 C19.32554687 22.4534375 19.32296875 23.7115625 19.3203125 25.0078125 C19.23085142 28.09209068 19.23085142 28.09209068 20.453125 30.1953125 C16.76589573 30.31232454 13.07914958 30.38283295 9.390625 30.4453125 C8.35228516 30.47882813 7.31394531 30.51234375 6.24414062 30.546875 C-0.29025047 30.62985139 -4.26621334 30.14871108 -9.546875 26.1953125 C-13.49249355 21.23799688 -14.23777009 17.09472466 -14.00390625 10.7890625 C-13.26838606 6.61482826 -11.7022986 4.99216523 -8.546875 2.1953125 C-5.58276107 0.40503676 -3.4462083 -0.04657038 0 0 Z " fill="#0B52B0" transform="translate(357.546875,63.8046875)"/>
<path d="M0 0 C8.25 0 16.5 0 25 0 C25.33 3.3 25.66 6.6 26 10 C24.96875 9.01 23.9375 8.02 22.875 7 C20.12916686 4.6176682 19.3069951 4.03349037 15.5625 3.625 C14.716875 3.74875 13.87125 3.8725 13 4 C12.67 5.98 12.34 7.96 12 10 C16.41522109 8.73025028 16.41522109 8.73025028 20 6 C22.27678571 14.03571429 22.27678571 14.03571429 21 18 C20.443125 17.360625 19.88625 16.72125 19.3125 16.0625 C16.87218173 13.53561833 16.87218173 13.53561833 12 13 C12.33 17.29 12.66 21.58 13 26 C17.55899594 26.48729856 17.55899594 26.48729856 21.765625 24.95703125 C23.93510476 23.16141815 25.73071964 21.53856072 27 19 C27.66 19.33 28.32 19.66 29 20 C27.68 23.3 26.36 26.6 25 30 C16.75 30 8.5 30 0 30 C0.33 29.34 0.66 28.68 1 28 C1.09699846 26.06442322 1.13076201 24.12550463 1.1328125 22.1875 C1.13410156 21.02992187 1.13539062 19.87234375 1.13671875 18.6796875 C1.13285156 17.46539062 1.12898438 16.25109375 1.125 15 C1.12886719 13.78570312 1.13273437 12.57140625 1.13671875 11.3203125 C1.13542969 10.16273437 1.13414063 9.00515625 1.1328125 7.8125 C1.13168457 6.74644531 1.13055664 5.68039063 1.12939453 4.58203125 C1.17404198 2.0131786 1.17404198 2.0131786 0 0 Z " fill="#0F54B1" transform="translate(115,64)"/>
<path d="M0 0 C8.25 0 16.5 0 25 0 C25.66 3.3 26.32 6.6 27 10 C24.75390625 8.09570312 24.75390625 8.09570312 22.5078125 6.19140625 C19.35890858 3.70328269 16.92660243 3.91463908 13 4 C12.67 5.98 12.34 7.96 12 10 C13.98 9.67 15.96 9.34 18 9 C18.33 8.01 18.66 7.02 19 6 C19.66 6 20.32 6 21 6 C21.33 9.63 21.66 13.26 22 17 C20.68 16.01 19.36 15.02 18 14 C15.03 13.505 15.03 13.505 12 13 C12.33 17.62 12.66 22.24 13 27 C19.43902004 25.94284746 22.65083846 25.13991818 27 20 C27.66 19.67 28.32 19.34 29 19 C28.31282934 22.89396706 27.27666659 26.17000022 26 30 C17.42 30 8.84 30 0 30 C0.66 29.67 1.32 29.34 2 29 C2.05794812 24.72922344 2.09357874 20.45854764 2.125 16.1875 C2.14175781 14.97255859 2.15851563 13.75761719 2.17578125 12.50585938 C2.18222656 11.34248047 2.18867188 10.17910156 2.1953125 8.98046875 C2.20578613 7.90692139 2.21625977 6.83337402 2.22705078 5.72729492 C2.20315543 2.78066259 2.20315543 2.78066259 0 0 Z " fill="#0850AF" transform="translate(384,64)"/>
<path d="M0 0 C4.95 0 9.9 0 15 0 C15 0.66 15 1.32 15 2 C14.01 2.495 14.01 2.495 13 3 C13 11.58 13 20.16 13 29 C13.66 29.33 14.32 29.66 15 30 C10.05 30 5.1 30 0 30 C0.66 29.67 1.32 29.34 2 29 C2.05794812 24.72922344 2.09357874 20.45854764 2.125 16.1875 C2.14175781 14.97255859 2.15851563 13.75761719 2.17578125 12.50585938 C2.18222656 11.34248047 2.18867188 10.17910156 2.1953125 8.98046875 C2.20578613 7.90692139 2.21625977 6.83337402 2.22705078 5.72729492 C2.20315543 2.78066259 2.20315543 2.78066259 0 0 Z " fill="#054DAE" transform="translate(283,64)"/>
<path d="M0 0 C4.95 0 9.9 0 15 0 C15 0.66 15 1.32 15 2 C14.01 2.495 14.01 2.495 13 3 C12.94215292 7.12494151 12.90645593 11.24977944 12.875 15.375 C12.85824219 16.550625 12.84148437 17.72625 12.82421875 18.9375 C12.81455078 20.61972656 12.81455078 20.61972656 12.8046875 22.3359375 C12.78897705 23.89127197 12.78897705 23.89127197 12.77294922 25.47802734 C12.74384974 28.17108623 12.74384974 28.17108623 15 30 C10.05 30 5.1 30 0 30 C0.66 29.67 1.32 29.34 2 29 C2.05794812 24.72922344 2.09357874 20.45854764 2.125 16.1875 C2.14175781 14.97255859 2.15851563 13.75761719 2.17578125 12.50585938 C2.18222656 11.34248047 2.18867188 10.17910156 2.1953125 8.98046875 C2.20578613 7.90692139 2.21625977 6.83337402 2.22705078 5.72729492 C2.20315543 2.78066259 2.20315543 2.78066259 0 0 Z " fill="#054DAE" transform="translate(189,64)"/>
<path d="M0 0 C2.375 0.0625 2.375 0.0625 5 1 C8.97154968 5.30251215 10.29772904 7.99986116 10.22265625 13.8984375 C9.88593684 17.07659614 8.71228981 19.33643807 7 22 C3.77208445 24.1519437 2.71599191 24.20086443 -1 24 C-2.82671197 20.34657606 -2.18470722 16.02160841 -2.1875 12 C-2.19974609 11.071875 -2.21199219 10.14375 -2.22460938 9.1875 C-2.22654297 8.300625 -2.22847656 7.41375 -2.23046875 6.5 C-2.23457764 5.6853125 -2.23868652 4.870625 -2.24291992 4.03125 C-2 2 -2 2 0 0 Z " fill="#EFF4FA" transform="translate(317,67)"/>
<path d="M0 0 C2.375 0.0625 2.375 0.0625 5 1 C9.23473312 5.58762754 10.36593699 8.56878514 10.27734375 14.671875 C9.84042619 18.33952097 8.51502474 20.35260554 6 23 C2.875 24 2.875 24 0 24 C-2.44986932 21.55013068 -2.25631311 20.862922 -2.265625 17.5 C-2.26820313 16.613125 -2.27078125 15.72625 -2.2734375 14.8125 C-2.26183594 13.4203125 -2.26183594 13.4203125 -2.25 12 C-2.25773438 11.071875 -2.26546875 10.14375 -2.2734375 9.1875 C-2.27085937 8.300625 -2.26828125 7.41375 -2.265625 6.5 C-2.26336914 5.6853125 -2.26111328 4.870625 -2.25878906 4.03125 C-2 2 -2 2 0 0 Z " fill="#F2F5FA" transform="translate(163,67)"/>
<path d="M0 0 C10 0 10 0 13.125 1.625 C15 4 15 4 15.5625 7 C15 10 15 10 13.4375 12.375 C10.18317497 14.54455002 7.82869586 14.29451507 4 14 C4.33 15.98 4.66 17.96 5 20 C3.35 20 1.7 20 0 20 C0 13.4 0 6.8 0 0 Z " fill="#1A5CB5" transform="translate(324,137)"/>
<path d="M0 0 C2.4375 1.0625 2.4375 1.0625 4 3 C4.56988508 6.91795996 4.59460908 9.07240983 2.4375 12.4375 C-0.94217804 14.60396028 -3.05983987 14.56288002 -7 14 C-9.4375 12.375 -9.4375 12.375 -11 10 C-11.60605429 6.36367425 -11.47161336 4.71685231 -9.4375 1.625 C-6.08716465 -0.6085569 -3.9518567 -0.49398209 0 0 Z " fill="#175AB4" transform="translate(102,137)"/>
<path d="M0 0 C2.5 1.5625 2.5 1.5625 4 4 C3.93957505 7.44422213 3.60093625 9.90417507 1.9375 12.9375 C-1.25902171 14.69043126 -4.44932174 14.51780725 -8 14 C-10 13 -10 13 -11 11 C-11.45439787 8.23910156 -11.50533624 5.75637948 -11 3 C-8.06403859 -0.7580306 -4.50318499 -0.56289812 0 0 Z " fill="#2363B8" transform="translate(371,137)"/>
<path d="M0 0 C2.5 1.5625 2.5 1.5625 4 4 C3.93957505 7.44422213 3.60093625 9.90417507 1.9375 12.9375 C-1.25902171 14.69043126 -4.44932174 14.51780725 -8 14 C-10 13 -10 13 -11 11 C-11.45439787 8.23910156 -11.50533624 5.75637948 -11 3 C-8.06403859 -0.7580306 -4.50318499 -0.56289812 0 0 Z " fill="#2363B8" transform="translate(281,137)"/>
<path d="M0 0 C1.71867343 1.71867343 1.32920599 4.09213219 1.5 6.4375 C1.71419183 10.36434915 1.71419183 10.36434915 3 14 C2.195625 13.814375 1.39125 13.62875 0.5625 13.4375 C-0.283125 13.293125 -1.12875 13.14875 -2 13 C-2.33 13.33 -2.66 13.66 -3 14 C-5.33297433 14.04092937 -7.66705225 14.04241723 -10 14 C-10.6875 11.6875 -10.6875 11.6875 -11 9 C-9.9375 7.25 -9.9375 7.25 -8 6 C-4.8125 5.3125 -4.8125 5.3125 -2 5 C-2 4.01 -2 3.02 -2 2 C-4.64 2.66 -7.28 3.32 -10 4 C-10 3.01 -10 2.02 -10 1 C-6.50615721 -0.16461426 -3.66344611 -0.13568319 0 0 Z " fill="#2162B7" transform="translate(190,137)"/>
<path d="M0 0 C2.97 0 5.94 0 9 0 C9 0.33 9 0.66 9 1 C13.95 1.33 18.9 1.66 24 2 C21 6 21 6 18.45629883 6.45410156 C17.46654053 6.4331543 16.47678223 6.41220703 15.45703125 6.390625 C14.38388672 6.37773438 13.31074219 6.36484375 12.20507812 6.3515625 C11.08552734 6.31804687 9.96597656 6.28453125 8.8125 6.25 C7.68134766 6.23195313 6.55019531 6.21390625 5.38476562 6.1953125 C2.58899624 6.14812652 -0.20507972 6.08230595 -3 6 C-3.66 4.68 -4.32 3.36 -5 2 C-3.35 1.67 -1.7 1.34 0 1 C0 0.67 0 0.34 0 0 Z " fill="#BBCFE9" transform="translate(296,92)"/>
<path d="M0 0 C2 3 2 3 1.8125 6.5625 C1 10 1 10 -2 12 C-4.625 12.1875 -4.625 12.1875 -7 12 C-8 11 -8 11 -8.09765625 8.49609375 C-8.08605469 7.48675781 -8.07445312 6.47742188 -8.0625 5.4375 C-8.05347656 4.42558594 -8.04445312 3.41367188 -8.03515625 2.37109375 C-8.02355469 1.58863281 -8.01195312 0.80617188 -8 0 C-5.06791253 -1.46604374 -3.11702298 -0.77925574 0 0 Z " fill="#EBF1F8" transform="translate(229,79)"/>
<path d="M0 0 C1.875 1.375 1.875 1.375 3 3 C3 3.66 3 4.32 3 5 C-1.455 6.485 -1.455 6.485 -6 8 C-5.34 9.32 -4.68 10.64 -4 12 C-0.535 11.505 -0.535 11.505 3 11 C2.67 11.99 2.34 12.98 2 14 C-5.25581395 14.48372093 -5.25581395 14.48372093 -8.5 12.375 C-10.45562482 9.27859404 -10.60024477 7.60146865 -10 4 C-7.21052575 -0.0769239 -4.82207542 -0.71818145 0 0 Z " fill="#185BB4" transform="translate(173,137)"/>
<path d="M0 0 C1.32 0 2.64 0 4 0 C4.33 3.63 4.66 7.26 5 11 C6.65 11 8.3 11 10 11 C10.0270043 9.54176788 10.04639787 8.08339325 10.0625 6.625 C10.07410156 5.81289062 10.08570313 5.00078125 10.09765625 4.1640625 C10.14466334 1.95062858 10.14466334 1.95062858 9 0 C10.65 0 12.3 0 14 0 C14.33 4.62 14.66 9.24 15 14 C13.68 14 12.36 14 11 14 C11 13.34 11 12.68 11 12 C10.01 12.66 9.02 13.32 8 14 C4.8125 14.125 4.8125 14.125 2 14 C0.64908472 11.29816945 0.66141942 8.88191794 0.4375 5.875 C0.35371094 4.77929688 0.26992188 3.68359375 0.18359375 2.5546875 C0.12300781 1.71164063 0.06242187 0.86859375 0 0 Z " fill="#2866B9" transform="translate(287,137)"/>
<path d="M0 0 C1.65 0 3.3 0 5 0 C5 3.96 5 7.92 5 12 C6.65 11.34 8.3 10.68 10 10 C10 6.7 10 3.4 10 0 C11.32 0 12.64 0 14 0 C14.33 4.62 14.66 9.24 15 14 C13.35 13.67 11.7 13.34 10 13 C7.66365343 13.31151288 5.32961443 13.64159778 3 14 C1.28132657 12.28132657 1.67079401 9.90786781 1.5 7.5625 C1.28580817 3.63565085 1.28580817 3.63565085 0 0 Z " fill="#1E5FB6" transform="translate(108,137)"/>
<path d="M0 0 C0.99 0.33 1.98 0.66 3 1 C4.47965926 1.14573058 5.96403843 1.24663268 7.44921875 1.31640625 C8.29677734 1.35830078 9.14433594 1.40019531 10.01757812 1.44335938 C10.89865234 1.48267578 11.77972656 1.52199219 12.6875 1.5625 C13.58017578 1.60568359 14.47285156 1.64886719 15.39257812 1.69335938 C17.59490108 1.79935353 19.79733473 1.90142051 22 2 C21.34 3.32 20.68 4.64 20 6 C13.4 6 6.8 6 0 6 C-0.33 4.35 -0.66 2.7 -1 1 C-0.67 0.67 -0.34 0.34 0 0 Z " fill="#BCCFE9" transform="translate(208,92)"/>
<path d="M0 0 C1.65 0 3.3 0 5 0 C5.99 2.64 6.98 5.28 8 8 C8.99 5.36 9.98 2.72 11 0 C11.99 0.33 12.98 0.66 14 1 C12.88110128 3.79425509 11.75522071 6.58532824 10.625 9.375 C10.30789063 10.1690625 9.99078125 10.963125 9.6640625 11.78125 C9.3546875 12.54179687 9.0453125 13.30234375 8.7265625 14.0859375 C8.44377441 14.7876709 8.16098633 15.4894043 7.86962891 16.21240234 C7 18 7 18 5 20 C2.375 19.625 2.375 19.625 0 19 C0.495 17.515 0.495 17.515 1 16 C1.33 16.66 1.66 17.32 2 18 C2.99 18 3.98 18 5 18 C4.56699236 11.18012971 3.09212176 6.08356979 0 0 Z " fill="#2061B7" transform="translate(404,137)"/>
<path d="M0 0 C1.9375 0.8125 1.9375 0.8125 3.9375 2.8125 C4.28240322 6.86511287 4.23913882 8.36004176 1.9375 11.8125 C-0.4375 11.5 -0.4375 11.5 -3.0625 10.8125 C-5.21752531 7.57996204 -5.53106135 6.56099077 -5.0625 2.8125 C-3.48626085 0.44814127 -2.87976021 -0.26179638 0 0 Z " fill="#EFF3F9" transform="translate(99.0625,138.1875)"/>
<path d="M0 0 C2.05078125 0.03255208 4.1015625 0.06510417 6.15234375 0.09765625 C5.82234375 1.08765625 5.49234375 2.07765625 5.15234375 3.09765625 C2.18234375 2.60265625 2.18234375 2.60265625 -0.84765625 2.09765625 C0.08575698 4.52195333 0.08575698 4.52195333 3.65234375 5.47265625 C7.15234375 7.09765625 7.15234375 7.09765625 8.27734375 9.09765625 C8.15234375 11.09765625 8.15234375 11.09765625 7.21484375 12.84765625 C3.93167181 14.83745742 0.94328238 14.28409585 -2.84765625 14.09765625 C-2.84765625 13.10765625 -2.84765625 12.11765625 -2.84765625 11.09765625 C0.12234375 11.59265625 0.12234375 11.59265625 3.15234375 12.09765625 C3.15234375 11.10765625 3.15234375 10.11765625 3.15234375 9.09765625 C0.84234375 8.10765625 -1.46765625 7.11765625 -3.84765625 6.09765625 C-2.77957394 0.14691194 -2.77957394 0.14691194 0 0 Z " fill="#2061B7" transform="translate(250.84765625,136.90234375)"/>
<path d="M0 0 C1.010625 0.0825 2.02125 0.165 3.0625 0.25 C5.0625 3.25 5.0625 3.25 4.8125 6.3125 C4.0625 9.25 4.0625 9.25 2.0625 11.25 C-0.5 11 -0.5 11 -2.9375 10.25 C-4.42856457 7.26787087 -4.05691467 4.53390342 -3.9375 1.25 C-2.9375 0.25 -2.9375 0.25 0 0 Z " fill="#F0F4FA" transform="translate(366.9375,138.75)"/>
<path d="M0 0 C1.010625 0.0825 2.02125 0.165 3.0625 0.25 C5.0625 3.25 5.0625 3.25 4.8125 6.3125 C4.0625 9.25 4.0625 9.25 2.0625 11.25 C-0.5 11 -0.5 11 -2.9375 10.25 C-4.42856457 7.26787087 -4.05691467 4.53390342 -3.9375 1.25 C-2.9375 0.25 -2.9375 0.25 0 0 Z " fill="#F0F4FA" transform="translate(276.9375,138.75)"/>
<path d="M0 0 C5.75 0.75 5.75 0.75 8 3 C8.33661952 6.1642235 8.49943411 8.18513382 6.8125 10.9375 C5 12 5 12 0 11 C0 7.37 0 3.74 0 0 Z " fill="#EBF0F8" transform="translate(328,138)"/>
<path d="M0 0 C1.32 0 2.64 0 4 0 C7 4.07142857 7 4.07142857 7 7 C9.34058637 4.87219421 10.70700306 2.88437779 12 0 C12.99 0.33 13.98 0.66 15 1 C14.45859375 1.70962891 14.45859375 1.70962891 13.90625 2.43359375 C10.18049471 7.74279503 9.33054683 11.57324953 10 18 C8.35 18 6.7 18 5 18 C5.1546875 16.0509375 5.1546875 16.0509375 5.3125 14.0625 C5.35725671 8.42315453 3.04709446 4.60328913 0 0 Z " fill="#1055B2" transform="translate(74,133)"/>
<path d="M0 0 C0.99 0 1.98 0 3 0 C3 1.32 3 2.64 3 4 C4.32 4.33 5.64 4.66 7 5 C5.68 5.33 4.36 5.66 3 6 C3 9.3 3 12.6 3 16 C4.32 16 5.64 16 7 16 C7 16.66 7 17.32 7 18 C5.00045254 18.04254356 2.99958364 18.04080783 1 18 C0 17 0 17 -0.09765625 14.49609375 C-0.08605469 13.48675781 -0.07445312 12.47742188 -0.0625 11.4375 C-0.05347656 10.42558594 -0.04445312 9.41367188 -0.03515625 8.37109375 C-0.02355469 7.58863281 -0.01195312 6.80617187 0 6 C-0.66 5.67 -1.32 5.34 -2 5 C-1.34 3.35 -0.68 1.7 0 0 Z " fill="#2765B9" transform="translate(204,133)"/>
<path d="M0 0 C3.96 0 7.92 0 12 0 C9.265625 6.15234375 9.265625 6.15234375 8 8 C6.68 8.33 5.36 8.66 4 9 C2.68 6.03 1.36 3.06 0 0 Z " fill="#FBFCFD" transform="translate(263,94)"/>
<path d="M0 0 C3.96 0 7.92 0 12 0 C9.265625 6.15234375 9.265625 6.15234375 8 8 C6.68 8.33 5.36 8.66 4 9 C2.68 6.03 1.36 3.06 0 0 Z " fill="#FBFCFD" transform="translate(246,94)"/>
<path d="M0 0 C0.66 0 1.32 0 2 0 C2 1.32 2 2.64 2 4 C3.32 4 4.64 4 6 4 C6 4.66 6 5.32 6 6 C4.68 6 3.36 6 2 6 C2 9.3 2 12.6 2 16 C3.65 16 5.3 16 7 16 C6.67 16.66 6.34 17.32 6 18 C4.02 18 2.04 18 0 18 C-1.238884 15.52223201 -1.40037545 13.44314986 -1.6875 10.6875 C-1.79449219 9.74261719 -1.90148437 8.79773438 -2.01171875 7.82421875 C-1.99893625 4.74363639 -1.31298049 2.76178656 0 0 Z " fill="#2564B9" transform="translate(397,133)"/>
<path d="M0 0 C0.66 0 1.32 0 2 0 C3.54296875 2.08203125 3.54296875 2.08203125 5.1875 4.8125 C5.73792969 5.70582031 6.28835938 6.59914063 6.85546875 7.51953125 C8 10 8 10 7 13 C4.69 12.67 2.38 12.34 0 12 C0 8.04 0 4.08 0 0 Z " fill="#F2F6FB" transform="translate(258,80)"/>
<path d="M0 0 C1.32 0 2.64 0 4 0 C4.82351864 6.38226945 5.12086218 12.56744599 5 19 C3.35 19 1.7 19 0 19 C0 12.73 0 6.46 0 0 Z " fill="#0F54B1" transform="translate(213,132)"/>
<path d="M0 0 C0.99 0 1.98 0 3 0 C3 2.31 3 4.62 3 7 C3.66 7.33 4.32 7.66 5 8 C4.67 8.33 4.34 8.66 4 9 C3.92794489 10.68608966 3.91613932 12.37500659 3.9375 14.0625 C3.95103516 15.44115234 3.95103516 15.44115234 3.96484375 16.84765625 C3.97644531 17.55792969 3.98804688 18.26820313 4 19 C2.35 19 0.7 19 -1 19 C-0.67 12.73 -0.34 6.46 0 0 Z " fill="#1659B4" transform="translate(147,132)"/>
<path d="M0 0 C1.32 0 2.64 0 4 0 C4.33 6.27 4.66 12.54 5 19 C3.35 19 1.7 19 0 19 C0 12.73 0 6.46 0 0 Z " fill="#1559B3" transform="translate(195,132)"/>
<path d="M0 0 C0.9075 0.185625 1.815 0.37125 2.75 0.5625 C5.68314324 0.95734621 7.2644657 0.94691572 10 0 C10 0.99 10 1.98 10 3 C8.68 3.33 7.36 3.66 6 4 C6 7.3 6 10.6 6 14 C4.35 14 2.7 14 1 14 C1.01160156 13.15695313 1.02320312 12.31390625 1.03515625 11.4453125 C1.04417969 10.34960938 1.05320312 9.25390625 1.0625 8.125 C1.07410156 7.03445312 1.08570312 5.94390625 1.09765625 4.8203125 C1.19744303 2.04822454 1.19744303 2.04822454 0 0 Z " fill="#2061B7" transform="translate(125,137)"/>
<path d="M0 0 C1.32 0 2.64 0 4 0 C4.33 0.66 4.66 1.32 5 2 C5.66 1.34 6.32 0.68 7 0 C7.99 0 8.98 0 10 0 C10 0.99 10 1.98 10 3 C8.68 3.33 7.36 3.66 6 4 C6 7.3 6 10.6 6 14 C4.35 14 2.7 14 1 14 C1.01160156 13.15695313 1.02320313 12.31390625 1.03515625 11.4453125 C1.04417969 10.34960938 1.05320312 9.25390625 1.0625 8.125 C1.07410156 7.03445312 1.08570313 5.94390625 1.09765625 4.8203125 C1.19744303 2.04822454 1.19744303 2.04822454 0 0 Z " fill="#2665B9" transform="translate(341,137)"/>
<path d="M0 0 C1.32 0 2.64 0 4 0 C4.33 0.66 4.66 1.32 5 2 C5.66 1.34 6.32 0.68 7 0 C7.99 0 8.98 0 10 0 C10 0.99 10 1.98 10 3 C8.68 3.33 7.36 3.66 6 4 C6 7.3 6 10.6 6 14 C4.35 14 2.7 14 1 14 C1.01160156 13.15695313 1.02320313 12.31390625 1.03515625 11.4453125 C1.04417969 10.34960938 1.05320312 9.25390625 1.0625 8.125 C1.07410156 7.03445312 1.08570313 5.94390625 1.09765625 4.8203125 C1.19744303 2.04822454 1.19744303 2.04822454 0 0 Z " fill="#2665B9" transform="translate(304,137)"/>
<path d="M0 0 C1.9453125 -0.29296875 1.9453125 -0.29296875 4.125 -0.1875 C5.40375 -0.125625 6.6825 -0.06375 8 0 C8.33 4.62 8.66 9.24 9 14 C7.35 14 5.7 14 4 14 C4 10.04 4 6.08 4 2 C2.02 2.33 0.04 2.66 -2 3 C-1.34 2.01 -0.68 1.02 0 0 Z " fill="#1A5DB5" transform="translate(384,137)"/>
<path d="M0 0 C0.33 0 0.66 0 1 0 C1.29003091 5.60726423 1.13444318 9.1241995 -2 14 C-5.22791555 16.1519437 -6.28400809 16.20086443 -10 16 C-4 8 -4 8 -2.34375 5.875 C-0.92796328 3.89948364 -0.42391584 2.37392872 0 0 Z " fill="#ADC5E4" transform="translate(326,75)"/>
<path d="M0 0 C2.5625 0.1875 2.5625 0.1875 4.5625 2.1875 C4.5 4.125 4.5 4.125 3.5625 6.1875 C-0.61607143 9.1875 -0.61607143 9.1875 -3.4375 9.1875 C-3.53515625 3.03515625 -3.53515625 3.03515625 -3.4375 1.1875 C-2.4375 0.1875 -2.4375 0.1875 0 0 Z " fill="#D8E3F2" transform="translate(224.4375,66.8125)"/>
<path d="M0 0 C1.67542976 0.28604898 3.34385343 0.61781233 5 1 C5.6875 3.3125 5.6875 3.3125 6 6 C4.09328037 8.80990262 2.20065992 9.28432449 -1 10 C-1.02689216 8.52093108 -1.04634621 7.04172517 -1.0625 5.5625 C-1.07410156 4.73878906 -1.08570313 3.91507812 -1.09765625 3.06640625 C-1 1 -1 1 0 0 Z " fill="#EEF3F9" transform="translate(259,67)"/>
<path d="M0 0 C2.5625 -0.25 2.5625 -0.25 5 0 C6.87824891 1.87824891 6.39102397 5.03935276 6.5625 7.5625 C6.64628906 8.76003906 6.73007813 9.95757812 6.81640625 11.19140625 C6.87699219 12.11824219 6.93757812 13.04507813 7 14 C5.35 14 3.7 14 2 14 C2.33 10.04 2.66 6.08 3 2 C1.35 2.33 -0.3 2.66 -2 3 C-1.34 2.01 -0.68 1.02 0 0 Z " fill="#1A5CB5" transform="translate(220,137)"/>
<path d="M0 0 C2.5 0.125 2.5 0.125 3.5 1.125 C3.73481693 3.30792774 3.91363323 5.49703174 4.0625 7.6875 C4.14628906 8.88503906 4.23007813 10.08257812 4.31640625 11.31640625 C4.37699219 12.24324219 4.43757812 13.17007813 4.5 14.125 C2.85 14.125 1.2 14.125 -0.5 14.125 C-0.46519531 13.35414063 -0.43039063 12.58328125 -0.39453125 11.7890625 C-0.36746094 10.78617188 -0.34039062 9.78328125 -0.3125 8.75 C-0.27769531 7.75226563 -0.24289063 6.75453125 -0.20703125 5.7265625 C-0.30371094 4.86804688 -0.40039062 4.00953125 -0.5 3.125 C-1.49 2.465 -2.48 1.805 -3.5 1.125 C-2.5 0.125 -2.5 0.125 0 0 Z " fill="#1A5CB5" transform="translate(155.5,136.875)"/>
<path d="M0 0 C3.0625 0.125 3.0625 0.125 5.0625 1.125 C5.0625 1.785 5.0625 2.445 5.0625 3.125 C4.4025 3.125 3.7425 3.125 3.0625 3.125 C2.7325 4.445 2.4025 5.765 2.0625 7.125 C0.0825 7.125 -1.8975 7.125 -3.9375 7.125 C-3.98004356 5.12545254 -3.97830783 3.12458364 -3.9375 1.125 C-2.9375 0.125 -2.9375 0.125 0 0 Z " fill="#E8EFF7" transform="translate(399.9375,66.875)"/>
<path d="M0 0 C1.32 0 2.64 0 4 0 C4.93619813 3.15506142 5.1057123 5.96586502 5.0625 9.25 C5.05347656 10.14203125 5.04445313 11.0340625 5.03515625 11.953125 C5.02355469 12.62859375 5.01195312 13.3040625 5 14 C3.35 14 1.7 14 0 14 C0 9.38 0 4.76 0 0 Z " fill="#2363B8" transform="translate(377,137)"/>
<path d="M0 0 C1.32 0 2.64 0 4 0 C4.33 4.62 4.66 9.24 5 14 C3.35 14 1.7 14 0 14 C0 9.38 0 4.76 0 0 Z " fill="#195CB5" transform="translate(352,137)"/>
<path d="M0 0 C1.32 0 2.64 0 4 0 C4.33 4.62 4.66 9.24 5 14 C3.35 14 1.7 14 0 14 C0 9.38 0 4.76 0 0 Z " fill="#175AB4" transform="translate(239,137)"/>
<path d="M0 0 C0.09796875 0.62648437 0.1959375 1.25296875 0.296875 1.8984375 C0.44640625 2.71570313 0.5959375 3.53296875 0.75 4.375 C0.88921875 5.18710938 1.0284375 5.99921875 1.171875 6.8359375 C1.81749261 9.17709092 1.81749261 9.17709092 4.078125 10.2890625 C4.71234375 10.52367187 5.3465625 10.75828125 6 11 C0.63157895 11.35789474 0.63157895 11.35789474 -1.875 9.9375 C-3.58196395 6.99772876 -3.18799766 4.32129197 -3 1 C-1 0 -1 0 0 0 Z " fill="#0F54B1" transform="translate(363,140)"/>
<path d="M0 0 C0.09796875 0.62648437 0.1959375 1.25296875 0.296875 1.8984375 C0.44640625 2.71570313 0.5959375 3.53296875 0.75 4.375 C0.88921875 5.18710938 1.0284375 5.99921875 1.171875 6.8359375 C1.81749261 9.17709092 1.81749261 9.17709092 4.078125 10.2890625 C4.71234375 10.52367187 5.3465625 10.75828125 6 11 C0.63157895 11.35789474 0.63157895 11.35789474 -1.875 9.9375 C-3.58196395 6.99772876 -3.18799766 4.32129197 -3 1 C-1 0 -1 0 0 0 Z " fill="#0F54B1" transform="translate(273,140)"/>
<path d="M0 0 C0.042721 1.66611905 0.04063832 3.33382885 0 5 C-1 6 -1 6 -3.5625 6.0625 C-4.7690625 6.0315625 -4.7690625 6.0315625 -6 6 C-5.75 4.125 -5.75 4.125 -5 2 C-1.8 0 -1.8 0 0 0 Z " fill="#CBDAEE" transform="translate(188,143)"/>
<path d="M0 0 C4.94520214 4.78567949 4.94520214 4.78567949 5.09765625 8.1640625 C5.08605469 8.97617188 5.07445312 9.78828125 5.0625 10.625 C5.05347656 11.44226563 5.04445312 12.25953125 5.03515625 13.1015625 C5.02355469 13.72804688 5.01195312 14.35453125 5 15 C4.67 15 4.34 15 4 15 C3.3299166 12.87607494 2.66403203 10.75082476 2 8.625 C1.62875 7.44164063 1.2575 6.25828125 0.875 5.0390625 C0 2 0 2 0 0 Z " fill="#A6C0E2" transform="translate(168,69)"/>
<path d="M0 0 C0.33 0 0.66 0 1 0 C1 2.31 1 4.62 1 7 C2.98 7.495 2.98 7.495 5 8 C4.67 9.32 4.34 10.64 4 12 C2.68 11.34 1.36 10.68 0 10 C0 6.7 0 3.4 0 0 Z " fill="#9BB8DF" transform="translate(191,139)"/>
<path d="M0 0 C2.01822917 0.06510417 4.03645833 0.13020833 6.0546875 0.1953125 C5.7246875 1.1853125 5.3946875 2.1753125 5.0546875 3.1953125 C2.0846875 2.7003125 2.0846875 2.7003125 -0.9453125 2.1953125 C-1.6053125 3.5153125 -2.2653125 4.8353125 -2.9453125 6.1953125 C-3.5703125 4.3203125 -3.5703125 4.3203125 -3.9453125 2.1953125 C-1.9453125 0.1953125 -1.9453125 0.1953125 0 0 Z " fill="#316DBD" transform="translate(250.9453125,136.8046875)"/>
<path d="M0 0 C2 0.25 2 0.25 4 1 C4.33 1.99 4.66 2.98 5 4 C2.69 4.33 0.38 4.66 -2 5 C-1.125 1.125 -1.125 1.125 0 0 Z " fill="#E1EAF5" transform="translate(168,138)"/>
<path d="M0 0 C0.66 0 1.32 0 2 0 C1.75 3.375 1.75 3.375 1 7 C-1.0625 8.4375 -1.0625 8.4375 -3 9 C-2.44271087 5.65626525 -1.64826111 2.96687001 0 0 Z " fill="#ABC4E4" transform="translate(229,82)"/>
<path d="M0 0 C0.33 0 0.66 0 1 0 C1.33 3.3 1.66 6.6 2 10 C0.35 10 -1.3 10 -3 10 C-2.69201674 8.51988629 -2.378482 7.04092675 -2.0625 5.5625 C-1.88847656 4.73878906 -1.71445313 3.91507813 -1.53515625 3.06640625 C-1 1 -1 1 0 0 Z " fill="#074FAF" transform="translate(158,141)"/>
<path d="M0 0 C0.66 0 1.32 0 2 0 C2.103125 0.61875 2.20625 1.2375 2.3125 1.875 C2.87525373 4.36526484 2.87525373 4.36526484 6 6 C4.02 6 2.04 6 0 6 C-0.38218767 4.34385343 -0.71395102 2.67542976 -1 1 C-0.67 0.67 -0.34 0.34 0 0 Z " fill="#074FAF" transform="translate(180,145)"/>
</svg>
