<?xml version="1.0" encoding="UTF-8"?>
<svg version="1.1" xmlns="http://www.w3.org/2000/svg" width="217" height="46">
<path d="M0 0 C71.61 0 143.22 0 217 0 C217 15.18 217 30.36 217 46 C145.39 46 73.78 46 0 46 C0 30.82 0 15.64 0 0 Z " fill="#FAFAFA" transform="translate(0,0)"/>
<path d="M0 0 C1.99954746 -0.04254356 4.00041636 -0.04080783 6 0 C6.33 0.33 6.66 0.66 7 1 C6.67 3.31 6.34 5.62 6 8 C11.28 8 16.56 8 22 8 C22 14.93 22 21.86 22 29 C9.13 29 -3.74 29 -17 29 C-17 22.07 -17 15.14 -17 8 C-14.03 8 -11.06 8 -8 8 C-8.33 5.69 -8.66 3.38 -9 1 C-8.67 2.32 -8.34 3.64 -8 5 C-3.71 5 0.58 5 5 5 C5 3.68 5 2.36 5 1 C3.35 1 1.7 1 0 1 C0 0.67 0 0.34 0 0 Z " fill="#FBEECB" transform="translate(26,5)"/>
<path d="M0 0 C1.37478516 0.01740234 1.37478516 0.01740234 2.77734375 0.03515625 C3.69644531 0.04417969 4.61554687 0.05320312 5.5625 0.0625 C6.27277344 0.07410156 6.98304687 0.08570313 7.71484375 0.09765625 C8.04484375 1.08765625 8.37484375 2.07765625 8.71484375 3.09765625 C5.74484375 3.09765625 2.77484375 3.09765625 -0.28515625 3.09765625 C-0.28515625 10.02765625 -0.28515625 16.95765625 -0.28515625 24.09765625 C12.58484375 24.09765625 25.45484375 24.09765625 38.71484375 24.09765625 C38.71484375 17.16765625 38.71484375 10.23765625 38.71484375 3.09765625 C33.43484375 3.09765625 28.15484375 3.09765625 22.71484375 3.09765625 C23.04484375 2.10765625 23.37484375 1.11765625 23.71484375 0.09765625 C26.52740656 0.07081313 29.33971616 0.05089437 32.15234375 0.03515625 C33.35600586 0.02258789 33.35600586 0.02258789 34.58398438 0.00976562 C36.62779596 0.00114195 38.67168277 0.04537475 40.71484375 0.09765625 C42.60115918 1.98397168 41.95749667 5.23966318 42.03125 7.7578125 C42.08841187 9.58131226 42.08841187 9.58131226 42.14672852 11.44165039 C42.18983154 12.99875732 42.23293457 14.55586426 42.27734375 16.16015625 C42.42171875 21.08953125 42.56609375 26.01890625 42.71484375 31.09765625 C26.87484375 31.09765625 11.03484375 31.09765625 -5.28515625 31.09765625 C-5.94515625 29.77765625 -6.60515625 28.45765625 -7.28515625 27.09765625 C-5.96515625 27.09765625 -4.64515625 27.09765625 -3.28515625 27.09765625 C-3.29039307 26.31527588 -3.29562988 25.53289551 -3.30102539 24.72680664 C-3.32172731 21.20459792 -3.33479463 17.68240195 -3.34765625 14.16015625 C-3.35603516 12.92845703 -3.36441406 11.69675781 -3.37304688 10.42773438 C-3.37626953 9.25791016 -3.37949219 8.08808594 -3.3828125 6.8828125 C-3.38804932 5.7987915 -3.39328613 4.71477051 -3.39868164 3.59790039 C-3.25196034 0.36656101 -3.22081163 0.13764152 0 0 Z " fill="#415079" transform="translate(9.28515625,9.90234375)"/>
<path d="M0 0 C12.05357143 -0.66964286 12.05357143 -0.66964286 15.6875 2.375 C18.38604353 5.43821158 18.9383892 6.19905958 19.25 10.25 C18.97622754 14.35658692 18.29425548 16.59817292 16 20 C11 22 11 22 0 22 C0 14.74 0 7.48 0 0 Z " fill="#232323" transform="translate(114,13)"/>
<path d="M0 0 C1.98 0 3.96 0 6 0 C7.65 4.29 9.3 8.58 11 13 C12.71017726 10.4347341 13.90417811 8.12039035 15.125 5.3125 C15.47820312 4.50425781 15.83140625 3.69601563 16.1953125 2.86328125 C16.46085937 2.24839844 16.72640625 1.63351562 17 1 C18.65 1 20.3 1 22 1 C22 7.93 22 14.86 22 22 C20.68 22 19.36 22 18 22 C17.505 17.05 17.505 17.05 17 12 C16.01 15.3 15.02 18.6 14 22 C12.35 22 10.7 22 9 22 C7.68 17.71 6.36 13.42 5 9 C4.67 13.29 4.34 17.58 4 22 C2.68 22 1.36 22 0 22 C0 14.74 0 7.48 0 0 Z " fill="#242424" transform="translate(61,13)"/>
<path d="M0 0 C0.33 0 0.66 0 1 0 C1 8.58 1 17.16 1 26 C15.19 26 29.38 26 44 26 C44 17.42 44 8.84 44 0 C44.33 0 44.66 0 45 0 C45.33 9.9 45.66 19.8 46 30 C30.16 30 14.32 30 -2 30 C-2.66 28.68 -3.32 27.36 -4 26 C-2.68 26 -1.36 26 0 26 C0 17.42 0 8.84 0 0 Z " fill="#8E98AD" transform="translate(6,11)"/>
<path d="M0 0 C2.12008311 1.61342752 2.89578018 2.4901679 3.43359375 5.12109375 C3.43994339 8.88642847 3.4311636 11.29289169 1.4375 14.5625 C-1.95518126 16.56331202 -4.12714161 16.55326548 -8 16 C-10.4375 14.5625 -10.4375 14.5625 -12 12 C-12.60873844 8.87016555 -12.65247963 6.125034 -12 3 C-8.4155313 -1.56205107 -5.39619856 -1.49894405 0 0 Z " fill="#151515" transform="translate(196,19)"/>
<path d="M0 0 C3.32852525 0.98622971 4.3408637 1.3501904 6.375 4 C7.23606961 8.21225944 7.05695258 11.88159776 4.8125 15.5625 C1.39193383 17.57975697 -0.72373948 17.6269883 -4.625 17 C-7.81033648 14.30471529 -8.52600875 12.61594555 -9.1875 8.5 C-8.625 5 -8.625 5 -6.5625 2 C-3.625 0 -3.625 0 0 0 Z " fill="#131313" transform="translate(144.625,18)"/>
<path d="M0 0 C2.3125 0 2.3125 0 5 1 C6.41288147 3.61051928 7.135305 6.13285344 8 9 C8.99 6.03 9.98 3.06 11 0 C12.32 0 13.64 0 15 0 C13.6490787 7.36866165 11.49986831 14.34298046 8 21 C4.77208445 23.1519437 3.71599191 23.20086443 0 23 C0 21.68 0 20.36 0 19 C1.65 18.67 3.3 18.34 5 18 C4.47105792 12.97505026 2.8002863 8.77647316 0.83984375 4.171875 C0 2 0 2 0 0 Z " fill="#181818" transform="translate(87,19)"/>
<path d="M0 0 C1.99954746 -0.04254356 4.00041636 -0.04080783 6 0 C7 1 7 1 7.24609375 3.28125 C6.95157497 6.53498123 6.0039396 7.90532308 4.0625 10.5 C1.68718371 13.68955001 0.5505235 16.04180574 0 20 C-2.75098234 17.53815995 -4.4023551 14.84266858 -6.1875 11.625 C-6.71730469 10.68914063 -7.24710938 9.75328125 -7.79296875 8.7890625 C-9.03522808 5.9185992 -9.25247844 4.08584761 -9 1 C-8.67 2.32 -8.34 3.64 -8 5 C-3.71 5 0.58 5 5 5 C5 3.68 5 2.36 5 1 C3.35 1 1.7 1 0 1 C0 0.67 0 0.34 0 0 Z " fill="#EA8E4D" transform="translate(26,5)"/>
<path d="M0 0 C0.33 1.32 0.66 2.64 1 4 C0.01 4.33 -0.98 4.66 -2 5 C-2 4.34 -2 3.68 -2 3 C-3.65 3.33 -5.3 3.66 -7 4 C-7 6.31 -7 8.62 -7 11 C-5.15274948 11.69159401 -5.15274948 11.69159401 -3 12 C-2.01 11.34 -1.02 10.68 0 10 C0.66 10.33 1.32 10.66 2 11 C0.125 14.875 0.125 14.875 -1 16 C-4.7466522 16.35345775 -7.15177284 16.50023653 -10.4375 14.5625 C-12.75364638 10.76401993 -12.90388217 7.32911985 -12 3 C-8.37672998 -1.61143457 -5.45677359 -1.28394673 0 0 Z " fill="#191919" transform="translate(167,19)"/>
<path d="M0 0 C6 0 6 0 7.85546875 1.21484375 C9.3046459 3.47516443 9.36968984 4.8921742 9.3125 7.5625 C9.30863281 8.34753906 9.30476562 9.13257813 9.30078125 9.94140625 C9 12 9 12 7 14 C4.69 14 2.38 14 0 14 C0 9.38 0 4.76 0 0 Z " fill="#F8F8F8" transform="translate(119,17)"/>
<path d="M0 0 C0.99 0 1.98 0 3 0 C3 1.32 3 2.64 3 4 C4.65 4 6.3 4 8 4 C8 4.99 8 5.98 8 7 C6.68 7 5.36 7 4 7 C4 10.3 4 13.6 4 17 C5.32 17 6.64 17 8 17 C8 17.99 8 18.98 8 20 C5.125 20.125 5.125 20.125 2 20 C0 18 0 18 -0.1953125 15.3984375 C-0.17210937 14.40070312 -0.14890625 13.40296875 -0.125 12.375 C-0.10695312 11.37210938 -0.08890625 10.36921875 -0.0703125 9.3359375 C-0.04710937 8.56507812 -0.02390625 7.79421875 0 7 C-0.99 7 -1.98 7 -3 7 C-3 6.01 -3 5.02 -3 4 C-2.01 4 -1.02 4 0 4 C0 2.68 0 1.36 0 0 Z " fill="#141414" transform="translate(173,15)"/>
<path d="M0 0 C1.65 0 3.3 0 5 0 C5 6.93 5 13.86 5 21 C4.01 21 3.02 21 2 21 C2 16.38 2 11.76 2 7 C0.68 7 -0.64 7 -2 7 C-1.125 2.25 -1.125 2.25 0 0 Z " fill="#050505" transform="translate(78,14)"/>
<path d="M0 0 C3.3 0 6.6 0 10 0 C10 0.99 10 1.98 10 3 C8.35 3.66 6.7 4.32 5 5 C4.67 8.63 4.34 12.26 4 16 C2.68 16 1.36 16 0 16 C0 10.72 0 5.44 0 0 Z " fill="#0C0C0C" transform="translate(203,19)"/>
<path d="M0 0 C2.5 0.125 2.5 0.125 3.5 1.125 C3.73728814 7.65042373 3.73728814 7.65042373 2.5 10.125 C-2.375 9.25 -2.375 9.25 -3.5 8.125 C-3.625 4.625 -3.625 4.625 -3.5 1.125 C-2.5 0.125 -2.5 0.125 0 0 Z " fill="#E9E9E9" transform="translate(143.5,21.875)"/>
<path d="M0 0 C2.5 0.125 2.5 0.125 3.5 1.125 C3.6875 4.5625 3.6875 4.5625 3.5 8.125 C2.84 8.785 2.18 9.445 1.5 10.125 C-2.03571429 9.58928571 -2.03571429 9.58928571 -3.5 8.125 C-3.625 4.625 -3.625 4.625 -3.5 1.125 C-2.5 0.125 -2.5 0.125 0 0 Z " fill="#EDEDED" transform="translate(191.5,21.875)"/>
<path d="M0 0 C0 0.66 0 1.32 0 2 C1.98 1.67 3.96 1.34 6 1 C6 2.32 6 3.64 6 5 C1.71 5 -2.58 5 -7 5 C-7 3.35 -7 1.7 -7 0 C-3.98968256 -0.93423645 -3.13349732 -1.04449911 0 0 Z " fill="#FAEDE3" transform="translate(25,5)"/>
<path d="M0 0 C1.67542976 0.28604898 3.34385343 0.61781233 5 1 C4.34 1.66 3.68 2.32 3 3 C3.66 3.66 4.32 4.32 5 5 C4.8125 7.0625 4.8125 7.0625 4 9 C3.01 9.33 2.02 9.66 1 10 C0.34 9.67 -0.32 9.34 -1 9 C-1 1 -1 1 0 0 Z " fill="#EBAA7A" transform="translate(35,21)"/>
<path d="M0 0 C3.63 0 7.26 0 11 0 C11 0.99 11 1.98 11 3 C7.7 3 4.4 3 1 3 C0.67 2.01 0.34 1.02 0 0 Z " fill="#4F5C81" transform="translate(19,10)"/>
<path d="M0 0 C2.97 0 5.94 0 9 0 C7.6875 2.5 7.6875 2.5 6 5 C5.01 5 4.02 5 3 5 C1.3125 2.5 1.3125 2.5 0 0 Z " fill="#FAEBCA" transform="translate(20,13)"/>
<path d="M0 0 C1.99954746 -0.04254356 4.00041636 -0.04080783 6 0 C7 1 7 1 7.25 3.3125 C6.95899829 6.44076838 6.05619793 7.68677733 4 10 C4.33 7.03 4.66 4.06 5 1 C3.35 1 1.7 1 0 1 C0 0.67 0 0.34 0 0 Z " fill="#E4A171" transform="translate(26,5)"/>
<path d="M0 0 C1.98 0.495 1.98 0.495 4 1 C3.67 2.32 3.34 3.64 3 5 C1.68 4.67 0.36 4.34 -1 4 C-0.67 2.68 -0.34 1.36 0 0 Z " fill="#1D1D1D" transform="translate(106,30)"/>
<path d="M0 0 C2.31 0 4.62 0 7 0 C7 0.99 7 1.98 7 3 C5.35 3.33 3.7 3.66 2 4 C1.34 2.68 0.68 1.36 0 0 Z " fill="#202020" transform="translate(206,19)"/>
</svg>
